# xmcd
#
# Track frame offsets:
#	150
#	1374
#	22715
#	44187
#	69276
#	92265
#	113416
#	133552
#	135505
#	155980
#	178040
#
# Disc length: 2523 seconds
#
# Revision: 1
# Processed by: cddbd v1.4PL0 Copyright (c) Steve Scherf et al.
# Submitted via: audiograbber 1.80
#
DISCID=8309d90b
DTITLE=Zucchero - Blue's
DYEAR=1900
DGENRE=
TTITLE0=Blue's introduction
TTITLE1=Con le mani
TTITLE2=Pippo
TTITLE3=Dune mosse
TTITLE4=Bambino io, bambino tu (legenda)
TTITLE5=Non ti sopporto più
TTITLE6=Senza una donna
TTITLE7=Into The Groove
TTITLE8=Hey man
TTITLE9=Solo una sana e consapevole libidine salva il giovane dallo stress e da
TTITLE9=ll'azione cattolica
TTITLE10=Hai scelto me
EXTD=
EXTT0=
EXTT1=
EXTT2=
EXTT3=
EXTT4=
EXTT5=
EXTT6=
EXTT7=
EXTT8=
EXTT9=
EXTT10=
PLAYORDER=
